# vtk DataFile Version 2.0
gntest2, Created by Gmsh 4.13.1 
ASCII
DATASET UNSTRUCTURED_GRID
POINTS 616 double
-1 -1 -1
1 -1 -1
1 1 -1
-1 1 -1
-0.795786921408334 -1 -1
-0.5664708676392824 -1 -1
-0.2908625547212034 -1 -1
-0.009770213030621755 -1 -1
0.2713221286599601 -1 -1
0.5521222622352269 -1 -1
0.7944714528826966 -1 -1
1 -0.8224778501730352 -1
1 -0.6480988121068326 -1
1 -0.4393984767573684 -1
1 -0.1866086489425813 -1
1 0.07736668915563394 -1
1 0.3413420272538494 -1
1 0.5956722082294352 -1
1 0.8106264946002562 -1
0.8184859837744916 1 -1
0.659361912590535 1 -1
0.5355698499384542 1 -1
0.4465695559981424 1 -1
0.3764634691148936 1 -1
0.3187012361301891 1 -1
0.2717018405144522 1 -1
0.2374830313321485 1 -1
0.2124077292625487 1 -1
0.1893044921692203 1 -1
0.1661626495220017 1 -1
0.1427012925712283 1 -1
0.119239935620455 1 -1
0.09580117999346638 1 -1
0.07236372293877025 1 -1
0.04871717675634069 1 -1
0.02498720880479188 1 -1
0.001245207334661935 1 -1
-0.02250764153458551 1 -1
-0.04624327118848481 1 -1
-0.0699418608926019 1 -1
-0.09366028944260574 1 -1
-0.1176763937827126 1 -1
-0.1416924981228196 1 -1
-0.1655583574476289 1 -1
-0.1894114996884395 1 -1
-0.2131350075515754 1 -1
-0.2368005101054012 1 -1
-0.2603258443196801 1 -1
-0.2836945086151941 1 -1
-0.3072655863011333 1 -1
-0.3371654383027933 1 -1
-0.3783678663606684 1 -1
-0.4333186216991569 1 -1
-0.5042593141809968 1 -1
-0.5864137376342815 1 -1
-0.6990600403778304 1 -1
-0.8423388909546305 1 -1
-1 0.827406542964926 -1
-1 0.6584020998838929 -1
-1 0.5354564830056269 -1
-1 0.4475921085709974 -1
-1 0.3840997161404525 -1
-1 0.3274255724564494 -1
-1 0.2710322189737557 -1
-1 0.2173756484163241 -1
-1 0.1637190778588925 -1
-1 0.108708082487293 -1
-1 0.05315898150445042 -1
-1 -0.001437224717891761 -1
-1 -0.05525799555424893 -1
-1 -0.1090057791628587 -1
-1 -0.1623922721273632 -1
-1 -0.2157787650918679 -1
-1 -0.2742818670278944 -1
-1 -0.3546709817211682 -1
-1 -0.4671417925032608 -1
-1 -0.624196689402734 -1
-1 -0.8100674235006591 -1
-0.01010379156466234 0.9793369082534302 -1
-0.1770596436919911 0.980068741400821 -1
0.1535909895298893 0.9801065709267383 -1
-0.953278306176091 0.02583486324098894 -1
-0.3231269215653996 0.9771306546826888 -1
0.2919611671026186 0.9630920962034006 -1
-0.9522548387295608 0.2993456920155616 -1
-0.9527513353085102 -0.1890644272736867 -1
-0.4627487950243353 0.9418997964019338 -1
-0.8912106239529686 -0.3941364195488746 -1
-0.9170483181338263 0.4902096855103925 -1
-0.1073904577984474 0.9805687456246555 -1
0.08178656279529251 0.9810252596334501 -1
0.4990498678495572 0.9198973136931944 -1
0.8008091532783501 0.1832001083832476 -1
-0.2565651401537151 0.9831103257945597 -1
-0.1614481668100416 -0.7680319374263785 -1
-0.6289128897238516 0.8988416400117285 -1
0.8110360204350369 -0.2984417213476359 -1
-0.9526360067412409 0.1360582426775727 -1
0.03384038663247459 0.9814871093684815 -1
-0.9525173986704474 -0.08186484457058224 -1
-0.05863068983298488 0.9799749052893169 -1
0.2007823122300285 0.9798018841058314 -1
0.8300248142576659 0.7104883428867729 -1
-0.6926050141892723 -0.7991623631034919 -1
0.4082890773790289 -0.7703204044615908 -1
-0.8730586258517252 0.7392463894791592 -1
0.8760287226924256 -0.7457058413824615 -1
-0.428666711180243 -0.7869545506876583 -1
-0.3205901259363823 -0.5574023035274644 -1
-0.04872798865508735 -0.5304980313855515 -1
-0.2052979336712145 -0.3165904086659574 -1
0.06031543095361465 -0.2813995129355509 -1
-0.1063166281784535 -0.05613802889915578 -1
-0.3729684629176585 -0.1038351310650764 -1
-0.2972523853887886 0.2099124156507235 -1
-0.04280065312021874 0.1652477414408802 -1
-0.1776743503658199 0.3146258608161919 -1
-0.5038440370396317 0.0873729321955358 -1
0.1385911613700009 -0.02058166180838422 -1
0.1795654866576295 0.2195427184776412 -1
0.03379721189853881 0.365818197450021 -1
0.2057860340494897 0.4378071754153187 -1
0.09071414241051387 0.5327724047436796 -1
0.2804881339778406 0.5910541691739302 -1
0.1400079408819137 0.7043034737532317 -1
0.3732110866490468 0.4650144434082978 -1
0.4309756620391092 0.6237535672655027 -1
-0.06420502354387533 0.4916714213508104 -1
0.5480450685157673 0.512733375945181 -1
0.3154122222833571 0.7130433223690265 -1
0.3334061971909186 -0.2084521338878777 -1
0.3890637166658971 0.08410037575615735 -1
0.4346531764107682 0.760753397755351 -1
-0.5724003253477086 -0.5925716557127036 -1
-0.7501140339523271 -0.6121640895280636 -1
-0.7227628372576228 -0.4310360336516286 -1
-0.4816963045633232 -0.3323799417158579 -1
-0.6890190463667143 -0.2083606470995553 -1
-0.8213853595031019 -0.2872533118694647 -1
-0.7727589008792114 -0.08044648053644309 -1
0.3631669592467741 0.8607966459151597 -1
0.2348119504578446 0.8323791440653605 -1
0.1113470062274799 -0.7617262031930553 -1
-0.9599501873884366 -0.2418754559932852 -1
-0.9295019210306481 -0.2946656387265221 -1
-0.8978568578479114 -0.226321975006735 -1
-0.9045354665395842 -0.1687867381321447 -1
-0.8349111685923853 -0.1650790999018154 -1
-0.8550291573430294 -0.07654148613204091 -1
-0.788548317679492 -0.00504565190058294 -1
-0.8570007800488781 -0.008374132994361537 -1
-0.6852659819270481 -0.04361966232206352 -1
-0.7097312142534249 0.03700704820146113 -1
-0.9526250221411253 0.08058694414783776 -1
-0.9043755819077252 0.1085948490979877 -1
-0.9047094204272055 0.1640952677802627 -1
-0.8589314391704305 0.136754293176319 -1
-0.8556369833584424 0.1945957326866821 -1
-0.7940055910454038 0.1575021611919613 -1
-0.7921286446091415 0.251510778584533 -1
-0.8640877023519878 0.07934801534794605 -1
-0.9050778973708646 0.2200408217377037 -1
-0.6923369443701924 0.2145526123724425 -1
-0.6955876809802738 0.3250675897251564 -1
-0.7847695494808224 0.3595289158795999 -1
-0.6857500492445887 0.4250311829198564 -1
-0.604484041475976 0.3753122690927424 -1
-0.6232546209259123 0.4921000916480476 -1
-0.5469112055578915 0.4526371011070195 -1
-0.7010604352927781 0.5059492998166675 -1
-0.6448828862564793 0.5583226722142518 -1
-0.5892032899596955 0.2843436780420582 -1
-0.5124162016448434 0.3501477145280574 -1
-0.5715502197063775 0.540973594238179 -1
-0.5633333703274135 0.6108849718721231 -1
-0.4929667210097455 0.5635394773625086 -1
-0.6562017080796732 0.6523559421159717 -1
-0.5471718879229693 0.6939005154192407 -1
-0.5088111804737636 0.6368326379308021 -1
-0.4720455976622145 0.7168000553812485 -1
-0.4358023134580913 0.6746949893937513 -1
-0.4046182321621475 0.7158574420289213 -1
-0.365680235431329 0.6729502676872223 -1
-0.3392021931446247 0.7246450178795281 -1
-0.3104291469508618 0.6673450596162778 -1
-0.2782136528525688 0.7242054161448267 -1
-0.3435500967277992 0.6152348180942573 -1
-0.2485552782704328 0.6717617535713045 -1
-0.2161398533865041 0.7235136746798553 -1
-0.2466395684956127 0.7779245001589291 -1
-0.1882380878218236 0.7764246050046546 -1
-0.1561507652884061 0.7235934419238834 -1
-0.1263498346650917 0.7753316170852522 -1
-0.2126221843972165 0.8369285657446492 -1
-0.3719234661839163 0.7786087112300099 -1
-0.4519651735338852 0.6184024778559701 -1
-0.5377327631139506 0.8079309198273567 -1
-0.2768619071420336 0.613481008539189 -1
-0.3069202161946123 0.5849501948170484 -1
-0.2188132111693973 0.617893304836452 -1
-0.2476642746861467 0.5696736389104059 -1
-0.2829327822139255 0.536565404095308 -1
-0.1902391656334531 0.5639457877508994 -1
-0.1577073211403727 0.6135619664598828 -1
-0.2294582533277836 0.5091036079078397 -1
-0.2883124905360597 0.4906248475684132 -1
-0.3208205510073421 0.4996371736566753 -1
-0.3058576667244725 0.4561699504112201 -1
-0.3350890663293798 0.4708644887488298 -1
-0.3229282514394431 0.5368033251384851 -1
-0.2599437647796789 0.4414722649204439 -1
-0.2903624675961195 0.4030648880481024 -1
-0.3200103577341968 0.4139130292435875 -1
-0.2003887783787797 0.4496566338726132 -1
-0.2335017627596032 0.3776200397689989 -1
-0.2847105086368669 0.3498913286819184 -1
-0.1323378457985566 0.5624267757783592 -1
-0.09956164441605765 0.6094621455591068 -1
-0.3285459611944601 0.3797893187947745 -1
-0.3670535088735026 0.3986541743199776 -1
-0.3245873387613707 0.3115740288054267 -1
-0.3839985337427311 0.3221977902319352 -1
-0.3703050142575457 0.2649645914527478 -1
-0.4324932664950271 0.2846421146744801 -1
-0.4541681745718985 0.3330694108250306 -1
-0.1251018887539559 0.6616287603742906 -1
-0.07293149628728859 0.6531155389863726 -1
-0.04139456636956151 0.602146601622963 -1
0.002192103250022166 0.6502285844709179 -1
-0.03224921521628696 0.6945110150585233 -1
0.01323504303101273 0.7000323733953675 -1
-0.01203467555141256 0.744012067189509 -1
0.04010439728371583 0.7462242150768272 -1
0.03024437546921628 0.7932863530705876 -1
-0.06695333863575215 0.7430641106349706 -1
-0.04142547569735365 0.7985465621155456 -1
0.07084901123210161 0.658255445908368 -1
0.1310410285854584 0.7613141659849185 -1
-0.7910954398153207 0.4563749089267528 -1
-0.7802249093376972 0.5864195131699451 -1
-0.3992180427163959 0.6267170907439554 -1
-0.1870780530015114 0.668658816974278 -1
-0.1653646053394039 0.509739384740062 -1
-0.1280817385444114 0.4537417036258423 -1
-0.6479784677023858 0.7726970011171905 -1
-0.9529985509141852 0.2449661240589759 -1
-0.3080862825375748 0.7780310978848306 -1
-0.3360334595990929 0.8321558521397669 -1
-0.3964200562567525 0.8350495664127995 -1
-0.3576407712712122 0.8858698762394545 -1
-0.3045947097678634 0.8783684178232938 -1
-0.4421164027930979 0.7854242045093682 -1
-0.2810875991035782 0.8300519650774489 -1
-0.2453193147233149 0.8756284460781339 -1
-0.2606436911544646 0.9152006634198063 -1
-0.2231002228844659 0.9105666815149722 -1
-0.2163530490531773 0.8825521295865528 -1
-0.2410349350113273 0.9438877219466101 -1
-0.2134098197343471 0.9388369069709114 -1
-0.282982012293943 0.9469783902794823 -1
-0.2926431777267776 0.9754861794975365 -1
-0.3183205133853703 0.9346784461174482 -1
0.2241796347863604 0.9798648270219672 -1
0.212405612316396 0.9593414359384105 -1
0.1885986844417589 0.9592766591083643 -1
0.2003191862684718 0.9385457489136996 -1
0.176074083469081 0.9386684893742159 -1
0.1880519174108316 0.9176229609277322 -1
0.1635472309563696 0.917944965475203 -1
0.2177287426813136 0.9140377607400774 -1
0.1756532547337721 0.8965108618585192 -1
0.1509707290459886 0.8968335877578382 -1
0.1389811625834726 0.9184429158571883 -1
0.126271678170671 0.8972158836608692 -1
0.1141502935692262 0.9189009830325421 -1
0.1014976946580584 0.8976036387383726 -1
0.0892288679234873 0.9194489249321698 -1
0.07672689321830273 0.8979706800764981 -1
0.0888194352814924 0.8762240280181832 -1
0.1383273649471038 0.8756155969592001 -1
0.06388782514670427 0.8765495610446662 -1
0.05172713676708107 0.8984573827302818 -1
0.03889365227827891 0.8769607454891493 -1
0.02677630497172793 0.8988687903953846 -1
0.07607428184719972 0.8546988656465007 -1
0.01387579238059831 0.8774564226263757 -1
0.001782956173547988 0.8993609453431466 -1
0.0146840618808879 0.9207068001409114 -1
-0.01028854621420113 0.921236638161774 -1
-0.02321996902720924 0.8998855331263466 -1
-0.03523699040125806 0.9218004268891042 -1
-0.04823803177031422 0.9004079430304621 -1
-0.0602980598379524 0.9223845884052118 -1
-0.07332036278216034 0.9009280321202517 -1
-0.08538087519441181 0.9229420004330542 -1
-0.09844332710782691 0.9014723367176557 -1
-0.110439749151201 0.9235444884926585 -1
-0.1235959373463083 0.9020481483958394 -1
-0.111466568479516 0.8798621708067158 -1
-0.1367533728682344 0.8803857029171065 -1
-0.1245257653596922 0.8581363729860909 -1
-0.1488906424959161 0.9025939899904845 -1
-0.1499127519937268 0.8586571038221666 -1
-0.1376966165658293 0.8363741273028614 -1
0.02595208233474806 0.8554015171517382 -1
-0.1630858481116147 0.8368991799901085 -1
0.1269527547778539 0.9400862988156214 -1
0.1010343672027348 0.854458169960661 -1
0.08837770464875402 0.8328143645981156 -1
-0.06117046718398371 0.878937778117903 -1
-0.09915203516861061 0.8576230614271619 -1
0.1129797550332595 0.8329089230718031 -1
-0.150854299216509 0.8146344025613905 -1
0.06327698453768979 0.8330398629104159 -1
-0.1753022459932028 0.8591643148267982 -1
0.0008274809970818333 0.8559250557125651 -1
-0.124970672883595 0.8147466243669036 -1
0.002577676588386824 0.9416059120969227 -1
0.02748069233837409 0.9410764607011859 -1
-0.07234864423156573 0.943289515989954 -1
0.07561351076103723 0.8111398406608187 -1
0.01295973194398133 0.8350974424875153 -1
0.2327306078768667 0.9590905861036596 -1
0.01392821426543959 0.9635582674879849 -1
-0.1875538384421872 0.8376503878935293 -1
-0.2011809561045114 0.8586370496587901 -1
-0.1881474699557693 0.8812630046166829 -1
-0.2268945207644324 0.8569009654593139 -1
0.1515888403219051 0.9391128261107055 -1
-0.1622606519686632 0.8808485299655909 -1
-0.1745574285051298 0.903027063620307 -1
-0.1613565077030712 0.9245926365438575 -1
-0.1849153914852575 0.9234032865056278 -1
-0.1735768655743935 0.9428022274704048 -1
-0.1480686320368671 0.9443109792654628 -1
0.03968438744469967 0.9202080054865608 -1
0.05223310455351424 0.9406708299722207 -1
0.06441886557931666 0.9196784878109909 -1
0.07701462278270529 0.9403357522214735 -1
0.06689437662185699 0.9604151970581618 -1
0.1019931630880376 0.9398482744399004 -1
0.1161291079830851 0.9603897233124933 -1
-0.04731936467931767 0.9424809872677868 -1
-0.02233833429189967 0.9418102149006831 -1
-0.03444309867679964 0.9640618681952711 -1
0.04921662569164274 0.8132744449757748 -1
-0.09739495910574188 0.9436121612113826 -1
-0.1226528410090388 0.9438784110283105 -1
-0.1356373266071835 0.9240392733947791 -1
-0.1331729886205738 0.9650610306825591 -1
-0.08377272411678553 0.9646093384499761 -1
0.5964697042325525 0.9185797746579878 -1
0.7098312949215274 0.8517036593265109 -1
0.4118004486086183 0.9329797306790965 -1
0.1405901207905262 0.9599477662512335 -1
-0.1728504448364563 0.8094143832314977 -1
-0.1121776384605228 0.8359529707536544 -1
-0.09945176233858227 0.8139082165872523 -1
-0.08674148222955236 0.835387165427933 -1
-0.01121763663971613 0.8779498011152482 -1
-0.02428982222754491 0.8565485234208847 -1
-0.01229731794044594 0.8343217687032072 -1
0.002938477271759893 0.8102836964690965 -1
0.757905499635097 0.4766452424882292 -1
-0.908384177555826 0.05428084860728509 -1
0.03794447087584155 0.8351973844138225 -1
-0.9536102154849166 -0.02827864348358678 -1
0.2222733674388423 0.9419328670889326 -1
0.2514007204806486 0.9376059686766878 -1
0.2527617156383245 0.8854659923495467 -1
0.2089999503307942 0.8745661599023958 -1
0.1748179243228112 0.8278949339185685 -1
0.2098641614757467 0.7871828276860082 -1
0.1648399006705467 0.8752222767354472 -1
0.1509894301047404 0.8499118926161605 -1
0.1808851190507043 0.8536084697722416 -1
0.1460333121204129 0.822263378352476 -1
0.16790768905544 0.8011965303868438 -1
0.1007416594880549 0.810953963011101 -1
0.1324488812065426 0.7951740992434619 -1
0.0998057393020923 0.7861482546672538 -1
0.06519095384244153 0.783154641985723 -1
0.0510048828367437 0.8553079894427152 -1
0.1136094124740608 0.8759423057584674 -1
-0.0863570492806003 0.8794326332356994 -1
-0.07397450076342083 0.8572645889011762 -1
-0.2014859052109749 0.980069087356064 -1
-0.9517571446461885 -0.1364332827239711 -1
-0.9525703125755827 0.1910425304216219 -1
-0.03620325529527062 0.8785160011194467 -1
-0.1992658135806016 0.9033112969147511 -1
-0.9466560553052263 0.3553067648051305 -1
-0.9083501191328373 0.3212072887985399 -1
-0.9478428749026595 0.4117861070709395 -1
-0.9062196888083829 0.2719406871058576 -1
-0.8580496939279941 0.2464821585092531 -1
0.1994057850773382 0.8976216958547475 -1
-0.2263383514469356 0.98125879379114 -1
-0.3714695887933853 0.9302322016165857 -1
0.1771245909879134 0.9796764456103884 -1
0.1257753079448362 0.8544500574274999 -1
-0.4154021724997059 0.1931895774827598 -1
-0.9053329993920943 -0.05202876573152002 -1
-0.5160706426698077 0.6037831417303815 -1
-0.8541712828389036 0.3053986815342514 -1
0.8192713948413897 -0.573612137107353 -1
-0.7617053502816497 0.855874658128212 -1
-0.3672203657515573 0.3615768555508564 -1
-0.3923601091448685 0.3849559236053801 -1
-0.3935705175966718 0.4135149420830814 -1
-0.417594656486459 0.3987118143085061 -1
-0.4185276046635776 0.4268835067028283 -1
-0.4423286845914624 0.4124115511254135 -1
-0.4428890153222905 0.4402102899354589 -1
-0.4193753232042732 0.4544770663424841 -1
-0.4433520855585523 0.4674678420836288 -1
-0.4201242701792051 0.4816512147861012 -1
-0.4437691733125044 0.4946080437046382 -1
-0.4209839508081047 0.5084743616555236 -1
-0.4668249026068407 0.480571756966352 -1
-0.4665542246512884 0.4258028686923479 -1
-0.4440350646835127 0.5212804259529753 -1
-0.4217859520242747 0.5349030575110767 -1
-0.3985387238471753 0.5226546982289205 -1
-0.3997021096824072 0.548983622861819 -1
-0.4661434798296205 0.3981113861259231 -1
-0.4901509752150304 0.4116631734015219 -1
-0.4446120626801379 0.547198109147659 -1
-0.3930062346290002 0.4699974660024095 -1
-0.4906253193238211 0.4391673953065011 -1
-0.3762829009581407 0.5369390935989149 -1
-0.3776299905554498 0.5631537879357087 -1
-0.4008067442152337 0.574940730887715 -1
-0.3755704691265548 0.5113618115714028 -1
-0.3718412139519287 0.4296353903162161 -1
-0.3793189284896635 0.5884022745214327 -1
-0.4662788645971501 0.5334868570269766 -1
-0.3552561589031125 0.5763693756678447 -1
-0.5136657105958859 0.4241077210056049 -1
-0.512982235716075 0.3987126376748377 -1
-0.5317327024208839 0.4128163144028763 -1
-0.5153218325446691 0.4492270906365596 -1
-0.4165577317989531 0.3721260169824444 -1
-0.539109051782859 0.3830531431661058 -1
-0.4672615896422415 0.5575299160599233 -1
-0.445220433874267 0.5723399661667169 -1
-0.4680546300867179 0.5869521611219088 -1
-0.3523503192753881 0.5250967554580486 -1
-0.351185729154781 0.4980770056980949 -1
-0.3644622687201458 0.4720294419221038 -1
-0.46681714409408 0.5074821836100539 -1
-0.4841930185710286 0.5224162206336281 -1
-0.4910279166029313 0.4660217102028066 -1
-0.5178832566638767 0.4806246004501953 -1
-0.4899511670737686 0.4971847484189869 -1
-0.4410977143817164 0.3856845493309909 -1
-0.4665121707928967 0.3672787921256563 -1
-0.4669682847439242 0.4532207921268455 -1
-0.4019373316986181 0.6007317913391217 -1
-0.4234941967924136 0.5862031432629397 -1
-0.3537749972254635 0.5510863445395411 -1
-0.3290753043388809 0.5649714401739598 -1
-0.4226737533722155 0.5607249566914491 -1
-0.3973678080969526 0.4957448562789636 -1
-0.4895369455529739 0.3858679660941925 -1
-0.3954082472277106 0.4413278364751501 -1
-0.4242348126417564 0.6114421969534443 -1
0.253053523215247 0.9761317305849078 -1
-0.0489653096621093 0.8569137121952815 -1
-0.06040780265887055 0.8327469715361844 -1
-0.07514849871696688 0.8143670525677322 -1
-0.08592302288888842 0.786974408395668 -1
-0.9006805558639548 -0.1134557028653457 -1
-0.03747714563726487 0.8358155075942207 -1
0.6172919427581736 0.6773892309186242 -1
0.164594551590179 0.9594647928969409 -1
-0.3598604093589657 0.601730990975248 -1
-0.3349124563295662 0.5922488403426537 -1
-0.3688362217399149 0.6310785064096487 -1
-0.3197955405318628 0.6197263304359126 -1
0.5564061469818866 -0.4683680996251399 -1
-0.9074745795974747 0.00405137114992147 -1
-0.3542887975892794 0.4486268596889492 -1
-0.1512882143735866 0.9819669979275499 -1
-0.5035820088600542 0.2175265859332194 -1
0.3472152249625767 0.9555113359337853 -1
-0.1735071241251787 0.3867368918452019 -1
-0.1074343583886704 0.3536036210100177 -1
0.1299620007170241 0.9803789053383767 -1
0.6850521193642554 -0.8061440548195316 -1
-0.2606598411989595 0.9559335703341029 -1
-0.3033837702713723 0.5576883617543634 -1
0.52476893635801 0.2965736639642307 -1
-0.8183342889876527 -0.04260193789085712 -1
-0.8228668948182852 0.04976601675713498 -1
0.2368393116796402 -0.5034607309147944 -1
0.6092374422959761 -0.06657268380721307 -1
-0.1325521296954527 0.7941454774592162 -1
-0.2494977011156116 0.2951178835554882 -1
-0.1877571049525131 0.2255656739242876 -1
0.1054311588548447 0.9800983228204847 -1
0.2217163021316467 0.7031158650036038 -1
-0.5316709668428369 0.9178284814028155 -1
-0.0518685134072655 0.4247821142346349 -1
-0.09855144888392871 0.7509957246399028 -1
-0.104560513484707 0.7092963752909871 -1
-0.4699583013796061 0.8582985321758739 -1
-0.3471322869514009 0.4194129424150431 -1
-0.1105570053947839 0.7932104089766158 -1
-0.2145164407742073 0.9591423049935585 -1
0.31137357703403 0.9052855497473868 -1
-0.5573342824402117 -0.0920060463504441 -1
-0.3429271544391964 0.6423615863793458 -1
-0.7844162588079364 0.09627394830484494 -1
-0.1870407199738304 0.9608415131590327 -1
-0.001208152162571039 0.4717151275959222 -1
0.09154149868763702 0.9603520882476607 -1
-0.3058647850095746 0.5174349537695002 -1
-0.3818795975112519 0.6107334870470128 -1
-0.0770506495011072 0.5561193561385996 -1
-0.01231270798865516 0.5414900415106194 -1
-0.4840646445068797 0.5421754832849947 -1
-0.5119507928146059 0.5309049124372113 -1
-0.5626573148817556 0.4890541992693176 -1
-0.3125199436493135 0.4793241150962846 -1
0.05728759657951071 0.9802777496987203 -1
-0.3279572229561467 0.4416971921414364 -1
-0.442593849385808 0.5950679890721958 -1
-0.4847419097663666 0.6116867403997226 -1
-0.4992469033504241 0.5872722353710371 -1
0.04078687709221715 0.9596531705611271 -1
0.003965419755185157 0.7784705787843131 -1
-0.3004014974817806 0.4298774074087182 -1
-0.8804422039953608 -0.5390715571333022 -1
-0.2363540694538557 0.8959869801498663 -1
-0.9132759132073599 0.600513250562648 -1
0.01277944509454113 0.9848764570219792 -1
-0.3951326974557436 0.3564507199674086 -1
-0.4187470806267807 0.3393813241877003 -1
-0.4969775114624559 0.3040941691776786 -1
-0.5553076210872997 0.3389689302631634 -1
-0.4731234929475008 0.634750840321318 -1
-0.4721359917809405 0.6643538907974442 -1
-0.150440526332802 0.7763589676559223 -1
-0.1249016425542077 0.7464602441380406 -1
-0.2006500255848393 0.8141695058705478 -1
-0.2226390992737881 0.7987951424668236 -1
-0.2440323709100275 0.8184776398737138 -1
0.8635534908697364 0.8634389229431519 -1
-0.01007586673590705 0.9580746341868585 -1
-0.1078910250340449 0.261624652050135 -1
-0.3758948486799558 0.4526477556017988 -1
0.01926800123467021 0.5945153376117416 -1
-0.2398229417170289 0.9646665433719943 -1
0.09616107454694479 0.7488547434630769 -1
0.4383376144797659 0.8616730885324388 -1
0.2047783898246291 0.8404470856886364 -1
-0.3499597377982393 0.09663812780553555 -1
-0.03438569855950344 0.9846747363476036 -1
-0.7671717253120911 0.04123873457759862 -1
-0.7073686730485198 0.1101918355275569 -1
-0.6260208893677984 0.04218491545157246 -1
-0.184327329972149 0.09400503149082345 -1
-0.8746826869486473 -0.7125998666782092 -1
-0.05930290430749069 0.9588833230384609 -1
-0.4131969647153242 0.8988774422379173 -1
-0.08180107516760381 0.9850301331435248 -1
-0.4848692481207815 0.3400205393153228 -1
-0.5348295767007347 0.432843295126517 -1
-0.5600630959907473 0.4183416052687239 -1
-0.1613755131005974 0.9621590363781017 -1
-0.1088767941301175 0.9595459373993768 -1
-0.1134079725454709 0.5147397283267348 -1
-0.01351728027044835 0.6219545902715037 -1
-0.0341346591969243 0.6409278373803925 -1
-0.8934364456534843 0.8883696604378007 -1
-0.130244110539628 0.985519354846953 -1
0.123537872385057 0.8179782847842659 -1
-0.3775183119047495 0.489845051282704 -1
-0.7447818920954873 0.7129327622448127 -1
-0.2061475180907987 0.9221498010245749 -1
-0.8726149245092508 -0.864365930656472 -1
-0.2327599285242937 0.8361290501494164 -1
-0.2506998946827694 0.8480683346074025 -1
-0.2720514824002075 0.8705811335701017 -1
-0.332954492369555 0.5157836334451409 -1
-0.8719628268744904 0.0358144237735852 -1
-0.8770671171157811 0.383745331044309 -1
-0.7387681684126183 -0.01488826522104028 -1
-0.2293908182137536 0.9295021634752375 -1
0.557033821484379 0.8210148191006746 -1
-0.6017673095563729 0.4389050533454444 -1
-0.3552263673376075 0.96908768137364 -1
0.02625079757674917 0.8180061045815794 -1
-0.4025365601683031 0.9611976913821856 -1
-0.1950441121856759 0.9416815445374217 -1
0.1682602607805843 0.6045514223330219 -1
-0.423633687890718 0.6405438307187534 -1
-0.4503695825680331 0.6453861340475058 -1
-0.3996314555664327 0.6603070211637088 -1
-0.1084754621754741 0.7718005689285456 -1
-0.4394165744344491 0.3595080186903645 -1
-0.283552590101618 0.5724717216232629 -1
-0.5282952525720397 0.5721806557129803 -1
-0.5088166685757551 0.3779056942009363 -1
-0.492483360152026 0.3634704189052463 -1
0.867771137868706 -0.8771259195452543 -1
0.3385743552973038 0.3084803934404385 -1
-0.742171967855493 0.07117789165286539 -1
0.849171925161733 -0.05462097989347371 -1
-0.222540721738033 0.8208999808210301 -1
0.131678272221853 0.8364903137236422 -1
-0.8245121477853424 0.1078279752132651 -1
0.167164333889458 0.7587144936763446 -1
0.3002795953949716 0.8014039413694288 -1
-0.5954822372200396 0.1555166517517301 -1

CELLS 1234 4850
1 0
1 1
1 2
1 3
2 0 4
2 4 5
2 5 6
2 6 7
2 7 8
2 8 9
2 9 10
2 10 1
2 1 11
2 11 12
2 12 13
2 13 14
2 14 15
2 15 16
2 16 17
2 17 18
2 18 2
2 2 19
2 19 20
2 20 21
2 21 22
2 22 23
2 23 24
2 24 25
2 25 26
2 26 27
2 27 28
2 28 29
2 29 30
2 30 31
2 31 32
2 32 33
2 33 34
2 34 35
2 35 36
2 36 37
2 37 38
2 38 39
2 39 40
2 40 41
2 41 42
2 42 43
2 43 44
2 44 45
2 45 46
2 46 47
2 47 48
2 48 49
2 49 50
2 50 51
2 51 52
2 52 53
2 53 54
2 54 55
2 55 56
2 56 3
2 3 57
2 57 58
2 58 59
2 59 60
2 60 61
2 61 62
2 62 63
2 63 64
2 64 65
2 65 66
2 66 67
2 67 68
2 68 69
2 69 70
2 70 71
2 71 72
2 72 73
2 73 74
2 74 75
2 75 76
2 76 77
2 77 0
3 119 120 115
3 236 596 124
3 444 446 175
3 371 375 374
3 374 376 371
3 220 222 114
3 128 492 363
3 174 178 177
3 137 151 139
3 114 498 220
3 219 408 407
3 118 119 115
3 252 584 250
3 446 529 175
3 236 552 122
3 116 486 214
3 212 218 211
3 446 527 195
3 148 472 147
3 150 402 148
3 325 327 193
3 212 507 218
3 113 136 110
3 113 562 557
3 492 496 92
3 270 373 370
3 206 448 208
3 236 554 232
3 253 327 256
3 487 550 120
3 373 375 370
3 209 460 447
3 196 502 95
3 147 472 146
3 370 396 270
3 269 396 370
3 135 138 87
3 258 509 257
3 201 204 200
3 209 461 460
3 509 553 257
3 355 543 312
3 324 325 193
3 144 145 143
3 240 518 478
3 163 165 164
3 124 596 501
3 454 522 453
3 235 362 361
3 196 506 502
3 471 600 504
3 110 136 108
3 195 528 446
3 140 614 132
3 466 597 195
3 218 507 219
3 120 550 115
3 131 496 492
3 48 260 93
3 136 511 137
3 361 473 235
3 123 596 121
3 407 537 221
3 229 574 228
3 170 239 169
3 260 490 93
3 218 407 220
3 87 533 135
3 254 584 253
3 126 474 132
3 233 531 232
3 480 496 130
3 312 543 497
3 215 498 214
3 406 579 244
3 221 538 223
3 141 614 369
3 190 546 189
3 256 327 325
3 201 491 209
3 229 505 226
3 461 477 437
3 163 164 159
3 124 613 237
3 112 118 115
3 113 511 136
3 234 505 229
3 525 530 339
3 98 530 525
3 124 554 236
3 163 166 165
3 172 540 539
3 248 251 194
3 545 610 546
3 349 571 89
3 89 576 349
3 480 489 405
3 189 547 252
3 523 591 168
3 150 481 402
3 210 213 204
3 129 501 123
3 513 612 494
3 214 498 116
3 133 134 103
3 240 597 466
3 259 490 260
3 235 471 234
3 398 594 565
3 256 390 255
3 168 591 569
3 96 496 480
3 168 568 441
3 105 579 406
3 363 492 92
3 194 251 181
3 514 570 79
3 228 552 236
3 148 493 150
3 150 493 149
3 507 526 482
3 371 377 372
3 201 205 204
3 460 461 437
3 448 449 208
3 166 591 165
3 223 538 224
3 176 239 170
3 108 133 107
3 485 510 140
3 232 381 233
3 107 133 103
3 78 549 323
3 120 503 487
3 253 534 254
3 248 506 251
3 119 121 120
3 149 494 150
3 184 512 479
3 201 517 205
3 597 598 195
3 253 584 583
3 121 122 120
3 230 236 232
3 323 536 78
3 582 583 547
3 121 596 122
3 486 487 243
3 95 244 196
3 209 517 201
3 108 136 133
3 545 546 190
3 182 512 184
3 494 612 160
3 213 242 204
3 198 477 461
3 165 591 167
3 187 241 188
3 333 570 514
3 138 145 144
3 133 135 134
3 363 474 128
3 219 407 218
3 94 108 107
3 500 516 341
3 122 515 120
3 130 496 131
3 269 368 367
3 214 486 213
3 208 524 206
3 207 524 208
3 208 526 207
3 126 129 123
3 353 485 140
3 193 610 545
3 372 614 141
3 255 534 256
3 167 173 170
3 137 511 151
3 180 599 181
3 161 395 394
3 325 326 256
3 350 564 100
3 90 516 500
3 450 454 419
3 387 472 99
3 478 512 182
3 219 409 408
3 135 533 134
3 494 559 513
3 501 596 123
3 191 241 225
3 451 522 454
3 254 490 259
3 240 466 458
3 172 604 443
3 132 614 129
3 256 534 253
3 209 491 461
3 188 241 191
3 100 566 350
3 228 574 573
3 104 489 480
3 526 532 207
3 181 599 182
3 202 203 199
3 537 538 221
3 369 614 510
3 112 562 113
3 326 390 256
3 202 216 203
3 451 454 450
3 453 523 168
3 257 490 254
3 161 394 245
3 211 532 212
3 470 471 235
3 222 401 114
3 161 388 155
3 212 532 526
3 157 395 161
3 162 171 163
3 376 377 371
3 555 590 91
3 379 613 377
3 165 238 164
3 219 434 409
3 501 613 124
3 434 507 482
3 247 252 250
3 175 521 444
3 254 534 255
3 233 593 362
3 128 474 126
3 255 589 254
3 199 241 187
3 528 541 178
3 157 161 155
3 522 523 453
3 84 392 391
3 84 394 392
3 100 564 344
3 347 349 334
3 205 517 206
3 6 107 5
3 306 340 274
3 206 524 205
3 245 388 161
3 212 526 507
3 146 472 387
3 182 183 181
3 205 210 204
3 417 450 419
3 344 549 78
3 334 348 347
3 183 246 194
3 224 601 456
3 449 578 428
3 418 421 417
3 276 340 338
3 415 457 413
3 497 508 316
3 204 242 202
3 306 341 340
3 419 454 452
3 203 241 199
3 210 214 213
3 459 462 432
3 528 529 446
3 112 113 110
3 411 414 413
3 419 457 415
3 237 554 124
3 443 540 172
3 452 457 419
3 138 144 87
3 99 472 402
3 476 477 186
3 301 348 331
3 137 138 135
3 7 94 6
3 94 109 108
3 409 411 410
3 344 558 100
3 276 338 337
3 246 247 194
3 411 413 412
3 5 107 103
3 274 340 276
3 205 524 207
3 418 463 423
3 414 415 413
3 331 348 334
3 413 457 420
3 213 486 243
3 409 410 408
3 432 462 424
3 445 462 459
3 185 246 183
3 413 420 412
3 253 583 327
3 149 493 139
3 111 118 112
3 266 328 268
3 94 142 109
3 292 342 319
3 145 146 85
3 301 331 330
3 317 343 288
3 418 422 421
3 216 217 203
3 162 615 171
3 277 337 281
3 272 328 306
3 276 337 277
3 94 107 6
3 428 551 449
3 352 474 102
3 416 463 418
3 427 444 436
3 247 248 194
3 376 379 377
3 421 450 417
3 122 596 236
3 335 336 318
3 422 427 421
3 434 465 409
3 416 418 417
3 423 463 433
3 27 262 26
3 427 436 421
3 290 343 342
3 431 432 424
3 189 246 185
3 78 558 344
3 314 329 326
3 301 330 329
3 297 348 301
3 480 495 104
3 126 132 129
3 183 194 181
3 268 328 272
3 225 505 191
3 329 330 326
3 546 547 189
3 188 189 185
3 306 354 341
3 5 103 4
3 19 548 2
3 73 143 72
3 355 545 190
3 319 346 294
3 346 347 296
3 290 342 292
3 331 334 333
3 182 184 183
3 231 235 234
3 399 475 264
3 429 452 441
3 420 426 425
3 343 344 342
3 287 318 317
3 287 335 318
3 331 333 332
3 445 446 444
3 272 306 274
3 338 339 336
3 292 319 294
3 319 350 346
3 231 234 229
3 458 459 432
3 287 317 288
3 440 443 439
3 302 329 314
3 429 457 452
3 207 532 210
3 314 326 325
3 423 424 422
3 187 188 185
3 337 338 336
3 188 190 189
3 154 155 97
3 420 457 429
3 288 343 290
3 411 412 410
3 151 561 152
3 318 323 317
3 263 367 322
3 424 462 422
3 188 191 190
3 374 375 373
3 283 335 287
3 414 416 415
3 331 332 330
3 245 394 84
3 283 287 286
3 294 346 296
3 328 354 306
3 439 464 426
3 427 445 444
3 339 516 90
3 332 390 330
3 420 425 412
3 281 335 283
3 452 453 441
3 435 458 432
3 68 81 67
3 431 435 432
3 323 530 98
3 436 450 421
3 246 252 247
3 297 301 299
3 458 466 459
3 414 465 428
3 430 431 424
3 420 429 426
3 281 283 282
3 314 325 324
3 428 463 416
3 302 305 303
3 302 314 305
3 282 382 280
3 358 470 469
3 154 156 155
3 356 358 310
3 416 417 415
3 299 329 302
3 316 356 303
3 316 357 356
3 431 437 435
3 271 373 270
3 436 451 450
3 357 358 356
3 315 361 321
3 153 364 154
3 277 281 280
3 357 470 358
3 299 302 300
3 438 439 426
3 156 157 155
3 417 419 415
3 335 337 336
3 281 337 335
3 184 187 185
3 357 471 470
3 452 454 453
3 361 362 321
3 259 261 254
3 429 441 438
3 478 599 240
3 276 277 275
3 288 290 289
3 303 356 300
3 287 288 286
3 283 286 285
3 292 294 293
3 284 313 308
3 272 273 271
3 302 303 300
3 153 154 97
3 280 382 284
3 315 321 304
3 305 312 303
3 189 252 246
3 296 297 295
3 300 356 310
3 313 345 320
3 422 462 427
3 305 355 312
3 314 324 305
3 296 348 297
3 274 276 275
3 294 295 293
3 426 464 425
3 411 465 414
3 365 382 304
3 72 143 85
3 321 365 304
3 294 296 295
3 312 316 303
3 272 274 273
3 284 307 278
3 409 465 411
3 301 329 299
3 304 382 282
3 288 289 286
3 274 275 273
3 313 320 308
3 279 374 373
3 257 589 258
3 313 382 365
3 324 355 305
3 133 136 135
3 292 293 291
3 284 382 313
3 313 365 345
3 433 448 447
3 284 308 307
3 268 272 271
3 290 291 289
3 414 428 416
3 300 310 298
3 347 348 296
3 285 315 304
3 354 488 341
3 308 311 307
3 360 361 315
3 238 239 88
3 320 380 378
3 290 292 291
3 146 387 85
3 230 232 231
3 66 97 65
3 281 282 280
3 70 99 69
3 210 532 211
3 184 185 183
3 268 271 270
3 487 503 243
3 384 385 309
3 418 423 422
3 358 469 385
3 283 285 282
3 81 364 153
3 297 299 298
3 289 359 286
3 299 300 298
3 427 462 445
3 293 309 291
3 320 378 308
3 280 284 278
3 155 388 97
3 330 390 326
3 308 378 311
3 263 322 262
3 438 440 439
3 285 359 315
3 310 385 384
3 277 278 275
3 358 385 310
3 285 304 282
3 200 204 202
3 297 298 295
3 239 579 105
3 286 359 285
3 354 475 80
3 328 475 354
3 102 474 363
3 359 360 315
3 264 266 265
3 63 84 62
3 273 279 271
3 277 280 278
3 275 383 273
3 279 373 271
3 186 512 478
3 264 475 266
3 265 367 263
3 295 384 293
3 266 267 265
3 270 396 267
3 267 269 265
3 268 270 267
3 269 367 265
3 266 268 267
3 192 508 497
3 68 366 81
3 429 438 426
3 423 430 424
3 101 264 263
3 267 396 269
3 385 469 468
3 81 481 364
3 30 80 29
3 433 447 430
3 62 391 61
3 41 89 40
3 69 366 68
3 65 388 64
3 64 245 63
3 72 85 71
3 71 387 70
3 291 389 289
3 80 475 399
3 293 384 309
3 67 153 66
3 410 442 408
3 44 79 43
3 130 131 118
3 529 603 175
3 35 98 34
3 307 383 278
3 311 400 307
3 289 389 359
3 37 78 36
3 28 101 27
3 33 90 32
3 39 100 38
3 46 397 45
3 166 540 443
3 447 460 430
3 58 105 57
3 226 505 225
3 121 125 123
3 310 384 298
3 47 93 46
3 278 383 275
3 539 567 172
3 469 473 468
3 298 384 295
3 109 110 108
3 273 383 279
3 7 142 94
3 143 145 85
3 425 464 456
3 70 387 99
3 164 404 159
3 154 364 160
3 101 263 262
3 309 389 291
3 359 389 360
3 97 388 65
3 136 137 135
3 430 460 431
3 247 250 249
3 474 590 132
3 352 590 474
3 279 400 374
3 99 366 69
3 423 433 430
3 431 460 437
3 372 501 129
3 171 540 166
3 95 406 244
3 66 153 97
3 167 170 169
3 101 262 27
3 264 265 263
3 45 386 44
3 29 399 28
3 341 516 340
3 202 242 216
3 63 245 84
3 449 482 208
3 64 388 245
3 85 387 71
3 307 400 383
3 81 153 67
3 99 402 366
3 410 455 442
3 383 400 279
3 113 557 117
3 266 475 328
3 461 491 198
3 447 585 209
3 162 163 159
3 43 483 42
3 93 397 46
3 111 112 110
3 227 574 226
3 504 505 234
3 565 594 86
3 98 536 323
3 8 142 7
3 56 406 55
3 466 527 459
3 385 468 309
3 177 542 179
3 88 587 238
3 80 399 29
3 360 473 361
3 28 399 101
3 444 521 436
3 186 478 476
3 468 473 360
3 44 386 79
3 425 455 412
3 412 455 410
3 488 500 341
3 309 468 389
3 20 352 19
3 338 516 339
3 154 160 156
3 389 468 360
3 84 391 62
3 511 561 151
3 45 397 386
3 347 571 349
3 125 126 123
3 134 563 103
3 197 199 187
3 90 525 339
3 206 585 448
3 200 202 199
3 180 181 179
3 402 472 148
3 316 508 357
3 402 481 366
3 101 399 264
3 425 456 455
3 225 241 203
3 235 473 469
3 139 493 148
3 18 102 17
3 184 197 187
3 437 476 435
3 167 169 165
3 217 225 203
3 437 477 476
3 181 251 179
3 349 570 334
3 339 530 336
3 376 577 379
3 502 506 86
3 445 527 446
3 374 611 376
3 219 507 434
3 366 481 81
3 443 604 439
3 318 530 323
3 217 226 225
3 238 587 164
3 319 564 350
3 323 549 317
3 80 488 354
3 344 564 342
3 30 488 80
3 448 578 449
3 2 548 18
3 167 523 173
3 541 598 542
3 343 549 344
3 145 147 146
3 139 147 137
3 89 571 350
3 478 518 476
3 173 174 170
3 250 261 249
3 79 483 43
3 163 171 166
3 90 500 32
3 114 499 498
3 350 571 346
3 345 593 233
3 31 488 30
3 193 545 324
3 428 578 463
3 9 104 8
3 248 565 506
3 149 588 559
3 111 130 118
3 104 495 142
3 171 615 484
3 583 584 252
3 129 614 372
3 365 593 345
3 469 470 235
3 538 601 224
3 476 518 435
3 483 576 42
3 362 593 321
3 33 525 90
3 98 525 34
3 17 363 16
3 176 579 239
3 483 570 349
3 459 527 445
3 76 533 75
3 441 568 438
3 376 611 577
3 16 92 15
3 12 106 11
3 195 527 466
3 350 566 89
3 142 495 109
3 312 497 316
3 386 514 79
3 4 581 0
3 0 581 77
3 3 575 56
3 137 147 138
3 433 578 448
3 209 585 517
3 226 574 229
3 139 588 149
3 563 581 103
3 100 558 38
3 37 558 78
3 78 536 36
3 89 566 40
3 31 500 488
3 464 605 456
3 1 606 10
3 32 500 31
3 35 536 98
3 442 601 538
3 517 585 206
3 39 566 100
3 22 91 21
3 327 582 193
3 55 95 54
3 509 595 514
3 357 508 471
3 258 595 509
3 217 227 226
3 115 562 112
3 57 575 3
3 232 531 231
3 481 586 364
3 340 516 338
3 197 200 199
3 41 576 89
3 403 528 178
3 130 495 480
3 408 537 407
3 372 613 501
3 254 589 257
3 247 249 248
3 140 555 353
3 109 111 110
3 159 395 157
3 458 518 240
3 435 518 458
3 349 576 483
3 436 521 451
3 465 551 428
3 132 555 140
3 401 484 117
3 442 538 537
3 79 570 483
3 541 542 178
3 11 606 1
3 228 230 229
3 235 531 362
3 167 591 523
3 406 575 105
3 397 509 386
3 150 586 481
3 24 485 23
3 91 590 351
3 336 530 318
3 179 542 180
3 34 525 33
3 260 261 259
3 117 511 113
3 216 519 217
3 434 551 465
3 504 600 544
3 544 600 192
3 211 218 215
3 230 231 229
3 400 611 374
3 16 363 92
3 14 96 13
3 327 583 582
3 104 142 8
3 196 244 177
3 77 563 76
3 103 581 4
3 448 585 447
3 118 131 119
3 21 351 20
3 75 87 74
3 510 614 140
3 317 549 343
3 243 503 127
3 261 398 249
3 504 544 505
3 456 601 455
3 506 565 86
3 149 559 494
3 397 553 509
3 380 554 237
3 76 563 533
3 25 83 24
3 10 489 9
3 173 603 174
3 333 595 332
3 324 545 355
3 221 222 220
3 195 541 528
3 364 586 160
3 539 540 171
3 342 564 319
3 482 526 208
3 36 536 35
3 381 554 380
3 482 551 434
3 369 370 141
3 54 502 53
3 509 514 386
3 508 600 471
3 109 495 111
3 442 537 408
3 122 552 520
3 184 479 197
3 139 148 147
3 190 543 355
3 38 558 37
3 213 243 242
3 55 406 95
3 224 539 223
3 513 560 158
3 346 571 347
3 398 565 249
3 334 570 333
3 168 569 568
3 568 569 440
3 151 588 139
3 13 405 12
3 332 580 390
3 9 489 104
3 257 553 490
3 490 553 93
3 93 553 397
3 53 86 52
3 169 238 165
3 105 535 239
3 125 128 126
3 40 566 39
3 372 556 371
3 174 177 176
3 152 588 151
3 233 381 345
3 102 363 17
3 179 251 196
3 449 551 482
3 250 584 254
3 132 590 555
3 117 561 511
3 258 589 580
3 207 210 205
3 42 576 41
3 438 568 440
3 463 578 433
3 580 589 255
3 102 548 352
3 111 495 130
3 191 543 190
3 217 519 227
3 231 531 235
3 390 580 255
3 52 594 51
3 439 604 464
3 321 593 365
3 378 577 311
3 138 147 145
3 559 588 152
3 484 539 171
3 116 487 486
3 519 572 127
3 254 261 250
3 547 583 252
3 269 370 369
3 115 550 499
3 160 586 494
3 494 586 150
3 455 601 442
3 18 548 102
3 496 609 92
3 211 214 210
3 223 539 484
3 514 595 333
3 577 611 311
3 221 223 222
3 223 484 401
3 218 220 215
3 311 611 400
3 201 602 491
3 520 552 227
3 352 548 19
3 177 244 176
3 92 609 15
3 125 492 128
3 392 587 391
3 23 353 22
3 96 480 405
3 182 599 478
3 401 557 114
3 12 405 106
3 242 572 216
3 117 557 401
3 362 531 233
3 131 607 119
3 95 502 54
3 484 615 117
3 533 563 134
3 197 479 198
3 211 215 214
3 249 565 248
3 368 510 83
3 15 609 14
3 160 612 156
3 216 572 519
3 198 602 197
3 251 506 196
3 220 498 215
3 86 594 52
3 580 595 258
3 332 595 580
3 559 608 513
3 239 535 88
3 179 196 177
3 96 609 496
3 244 579 176
3 489 606 106
3 269 369 368
3 59 535 58
3 10 606 489
3 569 591 166
3 58 535 105
3 106 606 11
3 322 467 262
3 105 575 57
3 351 352 20
3 195 598 541
3 127 520 519
3 200 602 201
3 192 600 508
3 119 607 121
3 172 605 604
3 604 605 464
3 542 598 180
3 262 467 26
3 498 499 116
3 96 405 13
3 369 510 368
3 83 485 24
3 173 523 522
3 56 575 406
3 573 574 227
3 51 592 50
3 26 467 25
3 513 608 560
3 351 590 352
3 499 562 115
3 127 572 243
3 224 567 539
3 164 587 404
3 237 613 379
3 152 561 560
3 75 533 87
3 158 162 159
3 223 401 222
3 14 609 96
3 22 353 91
3 197 602 200
3 492 607 131
3 456 567 224
3 404 587 392
3 74 144 73
3 114 562 499
3 240 599 597
3 116 550 487
3 159 404 395
3 243 572 242
3 174 176 170
3 261 592 398
3 169 239 238
3 53 502 86
3 91 351 21
3 371 556 375
3 158 612 513
3 353 555 91
3 77 581 563
3 23 485 353
3 73 144 143
3 368 467 322
3 25 467 83
3 121 607 125
3 560 608 152
3 83 467 368
3 395 404 394
3 561 615 560
3 547 610 582
3 582 610 193
3 499 550 116
3 50 82 49
3 503 515 127
3 403 529 528
3 82 592 261
3 60 88 59
3 83 510 485
3 394 404 392
3 152 608 559
3 158 159 157
3 375 556 370
3 125 607 492
3 82 261 260
3 87 144 74
3 175 522 521
3 522 603 173
3 232 554 381
3 228 236 230
3 519 520 227
3 158 560 162
3 377 613 372
3 505 544 191
3 175 603 522
3 560 615 162
3 403 603 529
3 477 479 186
3 191 544 543
3 543 544 192
3 120 515 503
3 117 615 561
3 122 520 515
3 198 479 477
3 567 605 172
3 597 599 180
3 156 158 157
3 515 520 127
3 141 556 372
3 370 556 141
3 320 381 380
3 456 605 567
3 345 381 320
3 393 587 88
3 180 598 597
3 51 594 592
3 49 260 48
3 156 612 158
3 497 543 192
3 491 602 198
3 88 535 59
3 50 592 82
3 367 368 322
3 61 393 60
3 521 522 451
3 391 587 393
3 592 594 398
3 391 393 61
3 174 603 403
3 82 260 49
3 60 393 88
3 48 93 47
3 405 489 106
3 557 562 114
3 443 569 166
3 441 453 168
3 174 403 178
3 178 542 177
3 479 512 186
3 220 407 221
3 552 573 227
3 228 573 552
3 471 504 234
3 379 380 237
3 378 380 379
3 379 577 378
3 440 569 443
3 546 610 547

CELL_TYPES 1234
1
1
1
1
3
3
3
3
3
3
3
3
3
3
3
3
3
3
3
3
3
3
3
3
3
3
3
3
3
3
3
3
3
3
3
3
3
3
3
3
3
3
3
3
3
3
3
3
3
3
3
3
3
3
3
3
3
3
3
3
3
3
3
3
3
3
3
3
3
3
3
3
3
3
3
3
3
3
3
3
3
3
5
5
5
5
5
5
5
5
5
5
5
5
5
5
5
5
5
5
5
5
5
5
5
5
5
5
5
5
5
5
5
5
5
5
5
5
5
5
5
5
5
5
5
5
5
5
5
5
5
5
5
5
5
5
5
5
5
5
5
5
5
5
5
5
5
5
5
5
5
5
5
5
5
5
5
5
5
5
5
5
5
5
5
5
5
5
5
5
5
5
5
5
5
5
5
5
5
5
5
5
5
5
5
5
5
5
5
5
5
5
5
5
5
5
5
5
5
5
5
5
5
5
5
5
5
5
5
5
5
5
5
5
5
5
5
5
5
5
5
5
5
5
5
5
5
5
5
5
5
5
5
5
5
5
5
5
5
5
5
5
5
5
5
5
5
5
5
5
5
5
5
5
5
5
5
5
5
5
5
5
5
5
5
5
5
5
5
5
5
5
5
5
5
5
5
5
5
5
5
5
5
5
5
5
5
5
5
5
5
5
5
5
5
5
5
5
5
5
5
5
5
5
5
5
5
5
5
5
5
5
5
5
5
5
5
5
5
5
5
5
5
5
5
5
5
5
5
5
5
5
5
5
5
5
5
5
5
5
5
5
5
5
5
5
5
5
5
5
5
5
5
5
5
5
5
5
5
5
5
5
5
5
5
5
5
5
5
5
5
5
5
5
5
5
5
5
5
5
5
5
5
5
5
5
5
5
5
5
5
5
5
5
5
5
5
5
5
5
5
5
5
5
5
5
5
5
5
5
5
5
5
5
5
5
5
5
5
5
5
5
5
5
5
5
5
5
5
5
5
5
5
5
5
5
5
5
5
5
5
5
5
5
5
5
5
5
5
5
5
5
5
5
5
5
5
5
5
5
5
5
5
5
5
5
5
5
5
5
5
5
5
5
5
5
5
5
5
5
5
5
5
5
5
5
5
5
5
5
5
5
5
5
5
5
5
5
5
5
5
5
5
5
5
5
5
5
5
5
5
5
5
5
5
5
5
5
5
5
5
5
5
5
5
5
5
5
5
5
5
5
5
5
5
5
5
5
5
5
5
5
5
5
5
5
5
5
5
5
5
5
5
5
5
5
5
5
5
5
5
5
5
5
5
5
5
5
5
5
5
5
5
5
5
5
5
5
5
5
5
5
5
5
5
5
5
5
5
5
5
5
5
5
5
5
5
5
5
5
5
5
5
5
5
5
5
5
5
5
5
5
5
5
5
5
5
5
5
5
5
5
5
5
5
5
5
5
5
5
5
5
5
5
5
5
5
5
5
5
5
5
5
5
5
5
5
5
5
5
5
5
5
5
5
5
5
5
5
5
5
5
5
5
5
5
5
5
5
5
5
5
5
5
5
5
5
5
5
5
5
5
5
5
5
5
5
5
5
5
5
5
5
5
5
5
5
5
5
5
5
5
5
5
5
5
5
5
5
5
5
5
5
5
5
5
5
5
5
5
5
5
5
5
5
5
5
5
5
5
5
5
5
5
5
5
5
5
5
5
5
5
5
5
5
5
5
5
5
5
5
5
5
5
5
5
5
5
5
5
5
5
5
5
5
5
5
5
5
5
5
5
5
5
5
5
5
5
5
5
5
5
5
5
5
5
5
5
5
5
5
5
5
5
5
5
5
5
5
5
5
5
5
5
5
5
5
5
5
5
5
5
5
5
5
5
5
5
5
5
5
5
5
5
5
5
5
5
5
5
5
5
5
5
5
5
5
5
5
5
5
5
5
5
5
5
5
5
5
5
5
5
5
5
5
5
5
5
5
5
5
5
5
5
5
5
5
5
5
5
5
5
5
5
5
5
5
5
5
5
5
5
5
5
5
5
5
5
5
5
5
5
5
5
5
5
5
5
5
5
5
5
5
5
5
5
5
5
5
5
5
5
5
5
5
5
5
5
5
5
5
5
5
5
5
5
5
5
5
5
5
5
5
5
5
5
5
5
5
5
5
5
5
5
5
5
5
5
5
5
5
5
5
5
5
5
5
5
5
5
5
5
5
5
5
5
5
5
5
5
5
5
5
5
5
5
5
5
5
5
5
5
5
5
5
5
5
5
5
5
5
5
5
5
5
5
5
5
5
5
5
5
5
5
5
5
5
5
5
5
5
5
5
5
5
5
5
5
5
5
5
5
5
5
5
5
5
5
5
5
5
5
5
5
5
5
5
5
5
5
5
5
5
5
5
5
5
5
5
5
5
5
5
5
5
5
5
5
5
5
5
5
5
5
5
5
5
5
5
5
5
5
5
5
5
5
5
5
5
5
5
5
5
5
5
5
5
5
5
5
5
5
5
5
5
5
5
5
5
5
5
5
5
5
5
5
5
5
5
5
5
5
5
5
5
5
5
5
5
5
5
5
5
5
5
5
5
5
5
5
5
5
5
5
5
5
5
5
5
5
5
5
5
5
5
5
5
5
5
5
5
5
5
5
5
5
5
5
5
5
5
5
5
5
5
5
5
5
5
5
5
5
5
5
5
5
5
5
5
5
5
5
5
5
5
5
5
5
5
5
5
5
5
5
5
5
5
5
5
5
5
5
5
5
5
5
5
5
5
5
5
5
5
5
5
5
5
5
5
5
5
5
5
5
5
5
5
5
5
5
5
5
5
5
